<svg width="222" height="202" viewBox="0 0 222 202" fill="none" xmlns="http://www.w3.org/2000/svg">
<path d="M27.6771 61.4288C27.6771 62.2072 27.4976 62.9442 27.1772 63.6012C26.0531 65.9066 23.8865 68.064 23.8865 70.6239V78.9345C23.8865 80.5037 25.076 81.7989 26.1969 82.9081C27.3177 84.0182 28.6259 85.1956 30.211 85.1956H38.6058C41.1917 85.1956 43.3709 83.0508 45.6996 81.9376C46.3633 81.621 47.1078 81.443 47.8941 81.443C50.6855 81.443 52.9483 83.6832 52.9483 86.4467C52.9483 89.2102 50.6855 91.4503 47.8941 91.4503C47.1078 91.4503 46.3633 91.2724 45.6996 90.955C43.3709 89.8425 41.1917 87.697 38.6058 87.697H31.9112C29.3254 87.697 27.1461 89.8425 24.8174 90.955C24.1537 91.2724 23.4093 91.4503 22.6229 91.4503C19.8316 91.4503 17.5687 89.2102 17.5687 86.4467C17.5687 85.6676 17.7483 84.9311 18.0687 84.2739C19.1928 81.9688 21.3594 79.8112 21.3594 77.2513V70.6239C21.3594 68.064 19.1928 65.9066 18.0687 63.6012C17.7483 62.9442 17.5687 62.2072 17.5687 61.4288C17.5687 58.6654 19.8316 56.4253 22.6229 56.4253C25.4143 56.4253 27.6771 58.6654 27.6771 61.4288Z" fill="#57B535"/>
<path d="M27.6771 61.4288C27.6771 62.2072 27.4976 62.9442 27.1772 63.6012C26.0531 65.9066 23.8865 68.064 23.8865 70.6239V78.9345C23.8865 80.5037 25.076 81.7989 26.1969 82.9081C27.3177 84.0182 28.6259 85.1956 30.211 85.1956H38.6058C41.1917 85.1956 43.3709 83.0508 45.6996 81.9376C46.3633 81.621 47.1078 81.443 47.8941 81.443C50.6855 81.443 52.9483 83.6832 52.9483 86.4467C52.9483 89.2102 50.6855 91.4503 47.8941 91.4503C47.1078 91.4503 46.3633 91.2724 45.6996 90.955C43.3709 89.8425 41.1917 87.697 38.6058 87.697H31.9112C29.3254 87.697 27.1461 89.8425 24.8174 90.955C24.1537 91.2724 23.4093 91.4503 22.6229 91.4503C19.8316 91.4503 17.5687 89.2102 17.5687 86.4467C17.5687 85.6676 17.7483 84.9311 18.0687 84.2739C19.1928 81.9688 21.3594 79.8112 21.3594 77.2513V70.6239C21.3594 68.064 19.1928 65.9066 18.0687 63.6012C17.7483 62.9442 17.5687 62.2072 17.5687 61.4288C17.5687 58.6654 19.8316 56.4253 22.6229 56.4253C25.4143 56.4253 27.6771 58.6654 27.6771 61.4288Z" fill="#57B535"/>
<path d="M79.4399 43.3125C79.4399 42.534 79.6195 41.797 79.9399 41.14C81.0641 38.8346 83.2306 36.6773 83.2306 34.1173V25.8067C83.2306 24.2375 82.0412 22.9424 80.9203 21.8329C79.7995 20.7232 78.4912 19.5457 76.9061 19.5457H68.5113C65.9254 19.5457 63.7462 21.6905 61.4175 22.8034C60.7538 23.1205 60.0094 23.2984 59.223 23.2984C56.4317 23.2984 54.1688 21.0581 54.1688 18.2948C54.1688 15.5314 56.4317 13.2913 59.223 13.2913C60.0094 13.2913 60.7538 13.469 61.4175 13.7863C63.7462 14.8991 65.9254 17.0439 68.5113 17.0439H75.2059C77.7917 17.0439 79.971 14.8991 82.2998 13.7863C82.9634 13.469 83.7078 13.2913 84.4942 13.2913C87.2855 13.2913 89.5484 15.5314 89.5484 18.2948C89.5484 19.0733 89.3689 19.8102 89.0484 20.4672C87.9243 22.7726 85.7577 24.93 85.7577 27.4899V34.1173C85.7577 36.6773 87.9243 38.8346 89.0484 41.14C89.3689 41.797 89.5484 42.534 89.5484 43.3125C89.5484 46.0758 87.2855 48.3159 84.4942 48.3159C81.7028 48.3159 79.4399 46.0758 79.4399 43.3125Z" fill="#57B535"/>
<path d="M63.0564 76.4389C63.0564 77.2173 62.8767 77.9542 62.5564 78.6113C61.4322 80.9167 59.2657 83.0743 59.2657 85.6342V93.9447C59.2657 95.514 60.4551 96.8092 61.576 97.9185C62.6968 99.0277 64.0051 100.206 65.5902 100.206H73.985C76.5709 100.206 78.7501 98.0611 81.0788 96.9479C81.7425 96.6305 82.4869 96.4526 83.2733 96.4526C86.0646 96.4526 88.3275 98.6927 88.3275 101.456C88.3275 104.22 86.0646 106.46 83.2733 106.46C82.4869 106.46 81.7425 106.282 81.0788 105.965C78.7501 104.852 76.5709 102.707 73.985 102.707H67.2903C64.7046 102.707 62.5253 104.852 60.1965 105.965C59.5328 106.282 58.7885 106.46 58.0021 106.46C55.2107 106.46 52.9479 104.22 52.9479 101.456C52.9479 100.678 53.1274 99.9414 53.4478 99.2842C54.572 96.9783 56.7386 94.8216 56.7386 92.2616V85.6342C56.7386 83.0743 54.572 80.9167 53.4478 78.6113C53.1274 77.9542 52.9479 77.2173 52.9479 76.4389C52.9479 73.6754 55.2107 71.4353 58.0021 71.4353C60.7935 71.4353 63.0564 73.6754 63.0564 76.4389Z" fill="#57B535"/>
<path d="M103.49 86.4467C103.49 87.225 103.311 87.9615 102.99 88.6188C101.866 90.9246 99.6999 93.0814 99.6999 95.6413V103.952C99.6999 105.521 100.889 106.816 102.01 107.926C103.131 109.036 104.439 110.213 106.024 110.213H114.419C117.005 110.213 119.184 108.068 121.513 106.956C122.177 106.638 122.921 106.46 123.707 106.46C126.498 106.46 128.761 108.701 128.761 111.464C128.761 114.228 126.498 116.468 123.707 116.468C122.921 116.468 122.177 116.29 121.513 115.972C119.184 114.86 117.005 112.715 114.419 112.715H107.725C105.139 112.715 102.959 114.86 100.63 115.972C99.9671 116.29 99.2222 116.468 98.436 116.468C95.6447 116.468 93.3818 114.228 93.3818 111.464C93.3818 110.686 93.5613 109.949 93.8818 109.292C95.0059 106.986 97.1725 104.829 97.1725 102.269V95.6413C97.1725 93.0814 95.0059 90.9246 93.8818 88.6188C93.5613 87.9615 93.3818 87.225 93.3818 86.4467C93.3818 83.6832 95.6447 81.4431 98.436 81.4431C101.228 81.4431 103.49 83.6832 103.49 86.4467Z" fill="#5C34FA"/>
<path d="M143.925 103.393C143.925 104.172 143.745 104.909 143.425 105.566C142.301 107.871 140.134 110.029 140.134 112.589V120.899C140.134 122.468 141.324 123.764 142.444 124.873C143.566 125.983 144.874 127.16 146.459 127.16H154.854C157.44 127.16 159.618 125.015 161.948 123.903C162.611 123.586 163.355 123.408 164.142 123.408C166.933 123.408 169.196 125.648 169.196 128.411C169.196 131.175 166.933 133.415 164.142 133.415C163.355 133.415 162.611 133.237 161.948 132.92C159.618 131.807 157.44 129.662 154.854 129.662H148.159C145.573 129.662 143.394 131.807 141.066 132.92C140.402 133.237 139.657 133.415 138.871 133.415C136.079 133.415 133.816 131.175 133.816 128.411C133.816 127.633 133.996 126.896 134.317 126.239C135.44 123.933 137.607 121.776 137.607 119.216V112.589C137.607 110.029 135.44 107.871 134.317 105.566C133.996 104.909 133.816 104.172 133.816 103.393C133.816 100.631 136.079 98.3904 138.871 98.3904C141.662 98.3904 143.925 100.631 143.925 103.393Z" fill="#4F3F84"/>
<path d="M58.0023 51.4216C57.2159 51.4216 56.4715 51.2438 55.8078 50.9266C53.4791 49.8138 51.2999 47.669 48.714 47.669H40.3192C38.7341 47.669 37.4259 48.8465 36.305 49.9561C35.1841 51.0657 33.9947 52.3608 33.9947 53.93V62.2406C33.9947 64.8005 36.1612 66.9579 37.2854 69.2633C37.6058 69.9203 37.7854 70.6573 37.7854 71.4357C37.7854 74.1991 35.5225 76.4392 32.7311 76.4392C29.9398 76.4392 27.6769 74.1991 27.6769 71.4357C27.6769 70.6573 27.8564 69.9203 28.1769 69.2633C29.301 66.9579 31.4676 64.8005 31.4676 62.2406V55.6131C31.4676 53.0533 29.301 50.8959 28.1769 48.5905C27.8564 47.9334 27.6769 47.1966 27.6769 46.4181C27.6769 43.6547 29.9398 41.4146 32.7311 41.4146C33.5175 41.4146 34.2619 41.5923 34.9256 41.9095C37.2543 43.0224 39.4336 45.1672 42.0194 45.1672H48.714C51.2999 45.1672 53.4791 43.0224 55.8078 41.9095C56.4715 41.5923 57.2159 41.4146 58.0023 41.4146C60.7936 41.4146 63.0565 43.6547 63.0565 46.4181C63.0565 49.1814 60.7936 51.4216 58.0023 51.4216Z" fill="#57B535"/>
<path d="M58.0023 51.4216C57.2159 51.4216 56.4715 51.2438 55.8078 50.9266C53.4791 49.8138 51.2999 47.669 48.714 47.669H40.3192C38.7341 47.669 37.4259 48.8465 36.305 49.9561C35.1841 51.0657 33.9947 52.3608 33.9947 53.93V62.2406C33.9947 64.8005 36.1612 66.9579 37.2854 69.2633C37.6058 69.9203 37.7854 70.6573 37.7854 71.4357C37.7854 74.1991 35.5225 76.4392 32.7311 76.4392C29.9398 76.4392 27.6769 74.1991 27.6769 71.4357C27.6769 70.6573 27.8564 69.9203 28.1769 69.2633C29.301 66.9579 31.4676 64.8005 31.4676 62.2406V55.6131C31.4676 53.0533 29.301 50.8959 28.1769 48.5905C27.8564 47.9334 27.6769 47.1966 27.6769 46.4181C27.6769 43.6547 29.9398 41.4146 32.7311 41.4146C33.5175 41.4146 34.2619 41.5923 34.9256 41.9095C37.2543 43.0224 39.4336 45.1672 42.0194 45.1672H48.714C51.2999 45.1672 53.4791 43.0224 55.8078 41.9095C56.4715 41.5923 57.2159 41.4146 58.0023 41.4146C60.7936 41.4146 63.0565 43.6547 63.0565 46.4181C63.0565 49.1814 60.7936 51.4216 58.0023 51.4216Z" fill="#E1D3C1"/>
<path d="M108.893 23.2983C108.107 23.2983 107.362 23.1205 106.699 22.8034C104.37 21.6905 102.192 19.5456 99.6057 19.5456H91.2105C89.6254 19.5456 88.3172 20.7232 87.1963 21.8328C86.0755 22.9424 84.886 24.2374 84.886 25.8067V34.1173C84.886 36.6772 87.0526 38.8346 88.1767 41.14C88.4971 41.7969 88.6766 42.5339 88.6766 43.3124C88.6766 46.0757 86.4138 48.3159 83.6225 48.3159C80.8311 48.3159 78.5682 46.0757 78.5682 43.3124C78.5682 42.5339 78.7478 41.7969 79.0682 41.14C80.1923 38.8346 82.3589 36.6772 82.3589 34.1173V27.4898C82.3589 24.9299 80.1923 22.7726 79.0682 20.4672C78.7478 19.8102 78.5682 19.0732 78.5682 18.2947C78.5682 15.5314 80.8311 13.2913 83.6225 13.2913C84.4088 13.2913 85.1532 13.469 85.8169 13.7862C88.1456 14.899 90.3248 17.0439 92.9107 17.0439H99.6057C102.192 17.0439 104.37 14.899 106.699 13.7862C107.362 13.469 108.107 13.2913 108.893 13.2913C111.685 13.2913 113.948 15.5314 113.948 18.2947C113.948 21.0581 111.685 23.2983 108.893 23.2983Z" fill="#57B535"/>
<path d="M171.152 98.3902C171.939 98.3902 172.683 98.5673 173.347 98.8847C175.675 99.998 177.855 102.143 180.44 102.143H188.835C190.42 102.143 191.729 100.965 192.849 99.8553C193.97 98.7461 195.16 97.4509 195.16 95.8816V87.5711C195.16 85.0111 192.993 82.8536 191.869 80.5485C191.549 79.8913 191.369 79.1543 191.369 78.3759C191.369 75.6124 193.632 73.3723 196.423 73.3723C199.215 73.3723 201.478 75.6124 201.478 78.3759C201.478 79.1543 201.298 79.8913 200.977 80.5485C199.854 82.8536 197.686 85.0111 197.686 87.5711V94.1985C197.686 96.7584 199.854 98.916 200.977 101.221C201.298 101.878 201.478 102.615 201.478 103.394C201.478 106.157 199.215 108.397 196.423 108.397C195.637 108.397 194.893 108.22 194.229 107.902C191.9 106.789 189.721 104.644 187.135 104.644H180.44C177.855 104.644 175.675 106.789 173.347 107.902C172.683 108.22 171.939 108.397 171.152 108.397C168.361 108.397 166.098 106.157 166.098 103.394C166.098 100.63 168.361 98.3902 171.152 98.3902Z" fill="#4F3F84"/>
<path d="M76.1132 36.828C76.1132 37.8005 75.8545 38.7132 75.4015 39.5023C74.1239 41.7279 72.0067 43.867 72.0067 46.4269V55.7924C72.0067 57.4925 73.2952 58.8954 74.5095 60.0976C75.7238 61.2996 77.141 62.5753 78.8582 62.5753H88.3187C90.9045 62.5753 93.0653 60.4793 95.3134 59.2145C96.1106 58.7661 97.0325 58.5099 98.0149 58.5099C101.039 58.5099 103.49 60.9368 103.49 63.9304C103.49 66.9241 101.039 69.3509 98.0149 69.3509C97.0325 69.3509 96.1106 69.0948 95.3134 68.6463C93.0653 67.3815 90.9045 65.2855 88.3187 65.2855H80.334C77.7481 65.2855 75.5874 67.3815 73.3393 68.6463C72.5422 69.0948 71.6202 69.3509 70.6378 69.3509C67.6138 69.3509 65.1624 66.9241 65.1624 63.9304C65.1624 62.9579 65.4211 62.0452 65.8741 61.2561C67.1518 59.0305 69.2689 56.8914 69.2689 54.3315V46.4269C69.2689 43.867 67.1518 41.7279 65.8741 39.5023C65.4211 38.7132 65.1624 37.8005 65.1624 36.828C65.1624 33.8343 67.6138 31.4075 70.6378 31.4075C73.6618 31.4075 76.1132 33.8343 76.1132 36.828Z" fill="#57B535"/>
<path d="M65.163 91.0338C65.163 90.0608 65.4218 89.148 65.8748 88.3593C67.1524 86.1336 69.2696 83.9945 69.2696 81.4345V72.0689C69.2696 70.369 67.981 68.9659 66.7668 67.7639C65.5525 66.5618 64.1353 65.2861 62.418 65.2861H52.9576C50.3717 65.2861 48.211 67.3821 45.9628 68.6469C45.1658 69.0954 44.2438 69.3515 43.2614 69.3515C40.2374 69.3515 37.7859 66.9247 37.7859 63.931C37.7859 60.9374 40.2374 58.5105 43.2614 58.5105C44.2438 58.5105 45.1658 58.7666 45.9628 59.2151C48.211 60.48 50.3717 62.5759 52.9576 62.5759H60.9423C63.5281 62.5759 65.6889 60.48 67.937 59.2151C68.7341 58.7666 69.6561 58.5105 70.6384 58.5105C73.6625 58.5105 76.1138 60.9374 76.1138 63.931C76.1138 64.9036 75.8552 65.8162 75.4021 66.6053C74.1245 68.831 72.0073 70.97 72.0073 73.53V81.4345C72.0073 83.9945 74.1245 86.1336 75.4021 88.3593C75.8552 89.148 76.1138 90.0608 76.1138 91.0338C76.1138 94.0274 73.6625 96.4542 70.6384 96.4542C67.6145 96.4542 65.163 94.0274 65.163 91.0338Z" fill="#57B535"/>
<path d="M98.0149 69.3514C97.0325 69.3514 96.1106 69.0953 95.3135 68.6469C93.0653 67.3821 90.9046 65.2861 88.3187 65.2861H78.8583C77.1411 65.2861 75.7238 66.5617 74.5096 67.7638C73.2953 68.9659 72.0067 70.3689 72.0067 72.0689V81.4345C72.0067 83.9945 74.1239 86.1336 75.4016 88.3593C75.8546 89.148 76.1133 90.0608 76.1133 91.033C76.1133 94.0274 73.6618 96.4542 70.6379 96.4542C67.6139 96.4542 65.1624 94.0274 65.1624 91.033C65.1624 90.0608 65.4212 89.148 65.8742 88.3593C67.1518 86.1336 69.269 83.9945 69.269 81.4345V73.5299C69.269 70.97 67.1518 68.8309 65.8742 66.6053C65.4212 65.8162 65.1625 64.9035 65.1625 63.931C65.1625 60.9373 67.6139 58.5105 70.6379 58.5105C71.6203 58.5105 72.5422 58.7666 73.3393 59.2151C75.5875 60.4799 77.7482 62.5758 80.3341 62.5758H88.3187C90.9046 62.5758 93.0653 60.4799 95.3135 59.2151C96.1106 58.7666 97.0325 58.5105 98.0149 58.5105C101.039 58.5105 103.49 60.9373 103.49 63.931C103.49 66.9247 101.039 69.3514 98.0149 69.3514Z" fill="#57B535"/>
<path d="M116.547 46.835C116.547 47.8075 116.289 48.7203 115.836 49.5094C114.558 51.735 112.441 53.874 112.441 56.4339V65.7995C112.441 67.4995 113.73 68.9025 114.944 70.1046C116.158 71.3067 117.576 72.5824 119.293 72.5824H128.753C131.339 72.5824 133.5 70.4864 135.748 69.2216C136.545 68.7731 137.467 68.517 138.45 68.517C141.473 68.517 143.925 70.9438 143.925 73.9375C143.925 76.9311 141.473 79.358 138.45 79.358C137.467 79.358 136.545 79.1018 135.748 78.6534C133.5 77.3885 131.339 75.2926 128.753 75.2926H120.769C118.183 75.2926 116.022 77.3886 113.774 78.6534C112.976 79.1018 112.055 79.358 111.072 79.358C108.048 79.358 105.597 76.9311 105.597 73.9375C105.597 72.965 105.856 72.0523 106.308 71.2631C107.586 69.0375 109.703 66.8984 109.703 64.3386V56.4339C109.703 53.874 107.586 51.735 106.308 49.5094C105.856 48.7203 105.597 47.8075 105.597 46.835C105.597 43.8413 108.048 41.4146 111.072 41.4146C114.096 41.4146 116.547 43.8413 116.547 46.835Z" fill="#5C34FA"/>
<path d="M105.597 101.04C105.597 100.067 105.855 99.1546 106.308 98.3651C107.586 96.1402 109.703 94.001 109.703 91.4411V82.0751C109.703 80.3751 108.415 78.9723 107.2 77.7701C105.986 76.5681 104.568 75.2925 102.851 75.2925H93.391C90.8051 75.2925 88.6444 77.3884 86.3963 78.6532C85.5992 79.1017 84.6772 79.3578 83.6948 79.3578C80.6708 79.3578 78.2194 76.931 78.2194 73.9373C78.2194 70.9436 80.6708 68.5168 83.6948 68.5168C84.6772 68.5168 85.5992 68.773 86.3963 69.2214C88.6444 70.4862 90.8051 72.5822 93.391 72.5822H101.376C103.962 72.5822 106.122 70.4862 108.37 69.2214C109.168 68.7729 110.09 68.5168 111.072 68.5168C114.096 68.5168 116.547 70.9436 116.547 73.9373C116.547 74.9098 116.289 75.8226 115.836 76.6117C114.558 78.8372 112.441 80.9762 112.441 83.5361V91.4411C112.441 94.001 114.558 96.1402 115.836 98.3651C116.289 99.1546 116.547 100.067 116.547 101.04C116.547 104.033 114.096 106.46 111.072 106.46C108.048 106.46 105.597 104.033 105.597 101.04Z" fill="#5C34FA"/>
<path d="M138.45 79.3579C137.467 79.3579 136.545 79.1017 135.748 78.6533C133.5 77.3884 131.339 75.2925 128.753 75.2925H119.293C117.576 75.2925 116.158 76.5682 114.944 77.7702C113.73 78.9723 112.441 80.3752 112.441 82.0751V91.4412C112.441 94.0011 114.558 96.1395 115.836 98.3652C116.289 99.1546 116.547 100.067 116.547 101.04C116.547 104.033 114.096 106.46 111.072 106.46C108.048 106.46 105.597 104.033 105.597 101.04C105.597 100.067 105.856 99.1546 106.308 98.3652C107.586 96.1395 109.703 94.0011 109.703 91.4412V83.5362C109.703 80.9763 107.586 78.8373 106.308 76.6117C105.856 75.8226 105.597 74.9099 105.597 73.9373C105.597 70.9437 108.048 68.5168 111.072 68.5168C112.055 68.5168 112.976 68.773 113.774 69.2214C116.022 70.4863 118.183 72.5823 120.769 72.5823H128.753C131.339 72.5823 133.5 70.4863 135.748 69.2214C136.545 68.773 137.467 68.5168 138.45 68.5168C141.473 68.5168 143.925 70.9437 143.925 73.9373C143.925 76.931 141.473 79.3579 138.45 79.3579Z" fill="#5C34FA"/>
<path d="M156.981 63.7818C156.981 64.7544 156.723 65.667 156.269 66.4562C154.992 68.6818 152.875 70.8209 152.875 73.3808V82.7467C152.875 84.4466 154.164 85.8492 155.377 87.0514C156.592 88.2536 158.009 89.5288 159.726 89.5288H169.186C171.772 89.5288 173.933 87.4329 176.181 86.1682C176.979 85.7202 177.9 85.4637 178.883 85.4637C181.907 85.4637 184.358 87.8906 184.358 90.8841C184.358 93.8776 181.907 96.3045 178.883 96.3045C177.9 96.3045 176.979 96.0488 176.181 95.6C173.933 94.3353 171.772 92.2394 169.186 92.2394H161.202C158.616 92.2394 156.456 94.3353 154.207 95.6C153.41 96.0488 152.489 96.3045 151.506 96.3045C148.482 96.3045 146.03 93.8776 146.03 90.8841C146.03 89.9119 146.289 88.999 146.742 88.2096C148.02 85.9847 150.137 83.8455 150.137 81.2856V73.3808C150.137 70.8209 148.02 68.6818 146.742 66.4562C146.289 65.667 146.03 64.7544 146.03 63.7818C146.03 60.7882 148.482 58.3613 151.506 58.3613C154.53 58.3613 156.981 60.7882 156.981 63.7818Z" fill="#4F3F84"/>
<path d="M146.03 117.987C146.03 117.014 146.289 116.102 146.742 115.313C148.019 113.087 150.137 110.948 150.137 108.388V99.0227C150.137 97.3228 148.848 95.9194 147.634 94.7172C146.42 93.5158 145.003 92.2398 143.285 92.2398H133.825C131.239 92.2398 129.078 94.3357 126.83 95.6004C126.033 96.0492 125.111 96.3049 124.129 96.3049C121.104 96.3049 118.653 93.878 118.653 90.8845C118.653 87.891 121.104 85.4641 124.129 85.4641C125.111 85.4641 126.033 85.7206 126.83 86.1686C129.078 87.4333 131.239 89.5292 133.825 89.5292H141.81C144.396 89.5292 146.556 87.4333 148.804 86.1686C149.601 85.7206 150.524 85.4641 151.506 85.4641C154.529 85.4641 156.981 87.891 156.981 90.8845C156.981 91.8575 156.723 92.7696 156.269 93.559C154.992 95.7847 152.875 97.9239 152.875 100.484V108.388C152.875 110.948 154.992 113.087 156.269 115.313C156.723 116.102 156.981 117.014 156.981 117.987C156.981 120.981 154.529 123.408 151.506 123.408C148.482 123.408 146.03 120.981 146.03 117.987Z" fill="#4F3F84"/>
<path d="M178.883 96.3049C177.9 96.3049 176.979 96.0492 176.181 95.6004C173.933 94.3357 171.772 92.2398 169.186 92.2398H159.726C158.009 92.2398 156.592 93.5158 155.377 94.7172C154.164 95.9194 152.875 97.3228 152.875 99.0227V108.388C152.875 110.948 154.992 113.087 156.269 115.313C156.723 116.102 156.981 117.014 156.981 117.987C156.981 120.981 154.53 123.408 151.506 123.408C148.482 123.408 146.03 120.981 146.03 117.987C146.03 117.014 146.289 116.102 146.742 115.313C148.02 113.087 150.137 110.948 150.137 108.388V100.484C150.137 97.9239 148.02 95.7847 146.742 93.559C146.289 92.7696 146.03 91.8575 146.03 90.8845C146.03 87.891 148.482 85.4641 151.506 85.4641C152.489 85.4641 153.41 85.7206 154.207 86.1686C156.456 87.4333 158.616 89.5292 161.202 89.5292H169.186C171.772 89.5292 173.933 87.4333 176.181 86.1686C176.979 85.7206 177.9 85.4641 178.883 85.4641C181.907 85.4641 184.358 87.891 184.358 90.8845C184.358 93.878 181.907 96.3049 178.883 96.3049Z" fill="#4F3F84"/>
<path d="M171.795 18.7117C171.795 19.6842 171.537 20.597 171.083 21.386C169.806 23.6117 167.689 25.7507 167.689 28.3106V37.6761C167.689 39.3762 168.978 40.7792 170.191 41.9813C171.406 43.1833 172.823 44.4591 174.54 44.4591H184.001C186.586 44.4591 188.747 42.3631 190.996 41.0982C191.793 40.6498 192.714 40.3936 193.697 40.3936C196.721 40.3936 199.172 42.8205 199.172 45.8141C199.172 48.8078 196.721 51.2346 193.697 51.2346C192.714 51.2346 191.793 50.9785 190.996 50.53C188.747 49.2652 186.586 47.1693 184.001 47.1693H176.016C173.43 47.1693 171.27 49.2652 169.021 50.53C168.224 50.9785 167.303 51.2346 166.32 51.2346C163.296 51.2346 160.844 48.8078 160.844 45.8141C160.844 44.8416 161.104 43.9289 161.556 43.1398C162.834 40.9142 164.951 38.7751 164.951 36.2152V28.3106C164.951 25.7507 162.834 23.6117 161.556 21.386C161.104 20.597 160.844 19.6842 160.844 18.7117C160.844 15.7181 163.296 13.2913 166.32 13.2913C169.344 13.2913 171.795 15.7181 171.795 18.7117Z" fill="#5C34FA"/>
<path d="M160.845 72.9167C160.845 71.9441 161.104 71.0314 161.557 70.2424C162.834 68.0167 164.951 65.8777 164.951 63.3177V53.9522C164.951 52.2522 163.663 50.8492 162.449 49.6471C161.234 48.445 159.818 47.1693 158.1 47.1693H148.639C146.054 47.1693 143.893 49.2653 141.645 50.5302C140.848 50.9786 139.926 51.2348 138.944 51.2348C135.919 51.2348 133.468 48.8079 133.468 45.8143C133.468 42.8206 135.919 40.3938 138.944 40.3938C139.926 40.3938 140.848 40.6499 141.645 41.0984C143.893 42.3632 146.054 44.4591 148.639 44.4591H156.625C159.21 44.4591 161.371 42.3632 163.619 41.0984C164.416 40.6499 165.338 40.3938 166.32 40.3938C169.344 40.3938 171.796 42.8206 171.796 45.8143C171.796 46.7868 171.537 47.6995 171.084 48.4886C169.806 50.7142 167.689 52.8533 167.689 55.4132V63.3177C167.689 65.8777 169.806 68.0167 171.084 70.2424C171.537 71.0314 171.796 71.9441 171.796 72.9167C171.796 75.9103 169.344 78.3371 166.32 78.3371C163.296 78.3371 160.845 75.9103 160.845 72.9167Z" fill="#5C34FA"/>
<path d="M193.697 51.2348C192.714 51.2348 191.793 50.9787 190.996 50.5302C188.747 49.2654 186.586 47.1694 184.001 47.1694H174.54C172.823 47.1694 171.406 48.445 170.191 49.6471C168.978 50.8492 167.689 52.2522 167.689 53.9522V63.3178C167.689 65.8777 169.806 68.0167 171.083 70.2424C171.537 71.0315 171.795 71.9442 171.795 72.9167C171.795 75.9103 169.344 78.3372 166.32 78.3372C163.296 78.3372 160.844 75.9103 160.844 72.9167C160.844 71.9442 161.104 71.0315 161.556 70.2424C162.834 68.0167 164.951 65.8777 164.951 63.3178V55.4132C164.951 52.8533 162.834 50.7142 161.556 48.4886C161.104 47.6995 160.844 46.7868 160.844 45.8143C160.844 42.8206 163.296 40.3938 166.32 40.3938C167.303 40.3938 168.224 40.6499 169.021 41.0984C171.27 42.3632 173.43 44.4591 176.016 44.4591H184.001C186.586 44.4591 188.747 42.3632 190.996 41.0984C191.793 40.6499 192.714 40.3938 193.697 40.3938C196.721 40.3938 199.172 42.8206 199.172 45.8143C199.172 48.808 196.721 51.2348 193.697 51.2348Z" fill="#5C34FA"/>
<path d="M129.096 6.63484C129.096 7.60736 128.837 8.52008 128.384 9.30921C127.107 11.5348 124.989 13.6738 124.989 16.2337V25.5993C124.989 27.2993 126.278 28.7023 127.492 29.9044C128.707 31.1065 130.123 32.3822 131.841 32.3822H141.301C143.887 32.3822 146.048 30.2862 148.296 29.0214C149.093 28.5729 150.015 28.3168 150.997 28.3168C154.021 28.3168 156.473 30.7436 156.473 33.7373C156.473 36.7309 154.021 39.1578 150.997 39.1578C150.015 39.1578 149.093 38.9016 148.296 38.4532C146.048 37.1883 143.887 35.0924 141.301 35.0924H133.316C130.731 35.0924 128.57 37.1883 126.321 38.4532C125.525 38.9016 124.603 39.1578 123.621 39.1578C120.597 39.1578 118.145 36.7309 118.145 33.7373C118.145 32.7648 118.404 31.8521 118.857 31.0629C120.135 28.8373 122.252 26.6982 122.252 24.1384V16.2337C122.252 13.6738 120.135 11.5348 118.857 9.30921C118.404 8.52008 118.145 7.60736 118.145 6.63484C118.145 3.64118 120.597 1.21436 123.621 1.21436C126.644 1.21436 129.096 3.64118 129.096 6.63484Z" fill="#0FBDE9"/>
<path d="M118.145 60.8388C118.145 59.8662 118.404 58.9536 118.857 58.1645C120.134 55.9388 122.252 53.7998 122.252 51.2399V41.8744C122.252 40.1743 120.963 38.7714 119.748 37.5692C118.535 36.3672 117.117 35.0915 115.4 35.0915H105.94C103.354 35.0915 101.193 37.1875 98.9448 38.4523C98.1476 38.9007 97.2256 39.1569 96.2433 39.1569C93.2193 39.1569 90.7678 36.7301 90.7679 33.7364C90.7679 30.7427 93.2193 28.3159 96.2433 28.3159C97.2256 28.3159 98.1476 28.572 98.9448 29.0205C101.193 30.2853 103.354 32.3813 105.94 32.3813H113.924C116.51 32.3813 118.671 30.2853 120.919 29.0205C121.716 28.572 122.638 28.3159 123.621 28.3159C126.644 28.3159 129.096 30.7427 129.096 33.7364C129.096 34.7089 128.837 35.6216 128.384 36.4108C127.107 38.6363 124.989 40.7754 124.989 43.3353V51.2399C124.989 53.7998 127.107 55.9388 128.384 58.1645C128.837 58.9536 129.096 59.8662 129.096 60.8388C129.096 63.8324 126.644 66.2593 123.621 66.2593C120.596 66.2593 118.145 63.8324 118.145 60.8388Z" fill="#0FBDE9"/>
<path d="M150.997 39.157C150.015 39.157 149.093 38.9008 148.296 38.4523C146.048 37.1875 143.887 35.0915 141.301 35.0915H131.841C130.123 35.0915 128.707 36.3672 127.492 37.5693C126.278 38.7714 124.989 40.1743 124.989 41.8744V51.24C124.989 53.7999 127.107 55.9389 128.384 58.1645C128.837 58.9536 129.096 59.8663 129.096 60.8389C129.096 63.8325 126.644 66.2593 123.621 66.2593C120.597 66.2593 118.145 63.8325 118.145 60.8389C118.145 59.8663 118.404 58.9536 118.857 58.1645C120.135 55.9389 122.252 53.7999 122.252 51.24V43.3353C122.252 40.7755 120.135 38.6364 118.857 36.4108C118.404 35.6216 118.145 34.7089 118.145 33.7364C118.145 30.7428 120.597 28.3159 123.621 28.3159C124.603 28.3159 125.525 28.5721 126.321 29.0205C128.57 30.2854 130.731 32.3813 133.316 32.3813H141.301C143.887 32.3813 146.048 30.2854 148.296 29.0205C149.093 28.5721 150.015 28.3159 150.997 28.3159C154.021 28.3159 156.473 30.7428 156.473 33.7364C156.473 36.7301 154.021 39.157 150.997 39.157Z" fill="#0FBDE9"/>
<path d="M186.168 131.078C191.008 131.078 194.931 127.194 194.931 122.403C194.931 117.611 191.008 113.728 186.168 113.728C181.329 113.728 177.405 117.611 177.405 122.403C177.405 127.194 181.329 131.078 186.168 131.078Z" fill="#E1D3C1"/>
<path d="M181.221 35.3757C184.013 35.3757 186.276 33.1355 186.276 30.3722C186.276 27.6088 184.013 25.3687 181.221 25.3687C178.43 25.3687 176.167 27.6088 176.167 30.3722C176.167 33.1355 178.43 35.3757 181.221 35.3757Z" fill="#0FBDE9"/>
<path d="M138.522 23.2983C141.313 23.2983 143.576 21.0582 143.576 18.2948C143.576 15.5314 141.313 13.2913 138.522 13.2913C135.73 13.2913 133.468 15.5314 133.468 18.2948C133.468 21.0582 135.73 23.2983 138.522 23.2983Z" fill="#57B535"/>
<path d="M138.522 23.2983C141.313 23.2983 143.576 21.0582 143.576 18.2948C143.576 15.5314 141.313 13.2913 138.522 13.2913C135.73 13.2913 133.468 15.5314 133.468 18.2948C133.468 21.0582 135.73 23.2983 138.522 23.2983Z" fill="#0FBDE9"/>
<path d="M205.775 63.219C205.775 60.4508 203.508 58.2068 200.712 58.2068C199.356 58.2068 198.126 58.7336 197.217 59.5917C197.154 59.6421 197.09 59.6926 197.026 59.7435C195.665 60.827 194.219 61.9767 192.515 61.9767H183.654C181.95 61.9767 180.505 60.827 179.143 59.7435C178.947 59.5881 178.754 59.4339 178.561 59.2848C177.704 58.6202 176.623 58.224 175.449 58.224C172.657 58.224 170.395 60.4642 170.395 63.2276C170.395 65.991 172.657 68.2311 175.449 68.2311C176.623 68.2311 177.704 67.835 178.561 67.1704C178.754 67.0212 178.947 66.8671 179.143 66.7117C180.505 65.6282 181.95 64.4784 183.654 64.4784H192.515C194.219 64.4784 195.665 65.6282 197.026 66.7117C197.14 66.8019 197.253 66.8918 197.366 66.9805C198.258 67.7589 199.429 68.2311 200.712 68.2311C203.506 68.2311 205.772 65.9851 205.775 63.219Z" fill="#5C34FA"/>
<path d="M47.0315 35.393C49.8277 35.393 52.0945 33.149 52.0945 30.3808C52.0945 27.6127 49.8277 25.3687 47.0315 25.3687C44.2353 25.3687 41.9686 27.6127 41.9686 30.3808C41.9686 33.149 44.2353 35.393 47.0315 35.393Z" fill="#E1D3C1"/>
<path d="M97.493 10.0243C100.289 10.0243 102.556 7.78029 102.556 5.01216C102.556 2.24402 100.289 0 97.493 0C94.6968 0 92.4301 2.24402 92.4301 5.01216C92.4301 7.78029 94.6968 10.0243 97.493 10.0243Z" fill="#57B535"/>
<path d="M0.483474 151.674H2.25021V175.983H0.483474V151.674Z" fill="#E1D3C1"/>
<path d="M34.6722 177.858C33.9563 178.761 33.1134 179.444 32.1434 179.907C31.1734 180.37 30.1111 180.602 28.9563 180.602C27.6169 180.602 26.312 180.255 25.0418 179.56C23.7947 178.866 22.4206 177.731 20.9194 176.157C18.5407 176.157 16.3929 175.624 14.4761 174.559C12.5823 173.471 11.0927 171.989 10.0073 170.114C8.92182 168.239 8.3791 166.144 8.3791 163.828C8.3791 161.513 8.92182 159.418 10.0073 157.543C11.1158 155.667 12.6285 154.197 14.5453 153.132C16.4622 152.044 18.61 151.5 20.9887 151.5C23.3675 151.5 25.5153 152.032 27.4321 153.097C29.3489 154.162 30.8501 155.633 31.9355 157.508C33.0441 159.383 33.5983 161.49 33.5983 163.828C33.5983 165.912 33.148 167.822 32.2473 169.558C31.3697 171.272 30.1457 172.696 28.5753 173.83C27.0049 174.941 25.215 175.659 23.2058 175.983C25.1919 178.067 27.1088 179.109 28.9563 179.109C30.827 179.109 32.4205 178.333 33.7369 176.782L34.6722 177.858ZM10.1458 163.828C10.1458 165.819 10.6193 167.637 11.5661 169.281C12.513 170.901 13.8063 172.186 15.446 173.135C17.1088 174.061 18.9564 174.525 20.9887 174.525C23.021 174.525 24.8571 174.061 26.4968 173.135C28.1365 172.186 29.4298 170.901 30.3767 169.281C31.3235 167.637 31.797 165.819 31.797 163.828C31.797 161.837 31.3235 160.031 30.3767 158.411C29.4298 156.767 28.1365 155.482 26.4968 154.556C24.8571 153.607 23.021 153.132 20.9887 153.132C18.9564 153.132 17.1088 153.607 15.446 154.556C13.8063 155.482 12.513 156.767 11.5661 158.411C10.6193 160.031 10.1458 161.837 10.1458 163.828Z" fill="#E1D3C1"/>
<path d="M38.2874 176.122C37.8948 176.122 37.5484 175.983 37.2482 175.705C36.971 175.404 36.8325 175.045 36.8325 174.629C36.8325 174.212 36.971 173.865 37.2482 173.587C37.5484 173.309 37.8948 173.17 38.2874 173.17C38.68 173.17 39.0149 173.309 39.292 173.587C39.5923 173.865 39.7424 174.212 39.7424 174.629C39.7424 175.045 39.5923 175.404 39.292 175.705C39.0149 175.983 38.68 176.122 38.2874 176.122Z" fill="#E1D3C1"/>
<path d="M62.1686 169.142H48.1041L45.0209 175.983H43.1156L54.2703 151.674H56.037L67.1917 175.983H65.2864L62.1686 169.142ZM61.5104 167.648L55.1363 153.618L48.7969 167.648H61.5104Z" fill="#E1D3C1"/>
<path d="M81.5096 176.157C79.1309 176.157 76.9831 175.624 75.0662 174.559C73.1725 173.494 71.6713 172.024 70.5628 170.149C69.4773 168.274 68.9346 166.167 68.9346 163.828C68.9346 161.49 69.4773 159.383 70.5628 157.508C71.6713 155.633 73.1725 154.162 75.0662 153.097C76.9831 152.032 79.1309 151.5 81.5096 151.5C83.2648 151.5 84.8814 151.789 86.3594 152.368C87.8375 152.924 89.0962 153.757 90.1354 154.869L89.0269 156.015C87.0869 154.093 84.6043 153.132 81.5789 153.132C79.5466 153.132 77.699 153.595 76.0362 154.521C74.3734 155.447 73.0685 156.732 72.1217 158.376C71.1748 159.997 70.7013 161.814 70.7013 163.828C70.7013 165.843 71.1748 167.672 72.1217 169.315C73.0685 170.936 74.3734 172.209 76.0362 173.135C77.699 174.061 79.5466 174.525 81.5789 174.525C84.5812 174.525 87.0638 173.552 89.0269 171.607L90.1354 172.753C89.0962 173.865 87.826 174.71 86.3248 175.289C84.8468 175.867 83.2417 176.157 81.5096 176.157Z" fill="#E1D3C1"/>
<path d="M110.41 169.142H96.3455L93.2624 175.983H91.3571L102.512 151.674H104.278L115.433 175.983H113.528L110.41 169.142ZM109.752 167.648L103.378 153.618L97.0383 167.648H109.752Z" fill="#E1D3C1"/>
<path d="M119.835 151.674H129.431C131.948 151.674 134.177 152.195 136.117 153.236C138.08 154.278 139.604 155.725 140.69 157.577C141.775 159.406 142.318 161.49 142.318 163.828C142.318 166.167 141.775 168.262 140.69 170.114C139.604 171.943 138.08 173.379 136.117 174.42C134.177 175.462 131.948 175.983 129.431 175.983H119.835V151.674ZM129.293 174.386C131.533 174.386 133.507 173.946 135.216 173.066C136.925 172.163 138.242 170.913 139.165 169.315C140.089 167.718 140.551 165.889 140.551 163.828C140.551 161.768 140.089 159.939 139.165 158.341C138.242 156.744 136.925 155.505 135.216 154.626C133.507 153.723 131.533 153.271 129.293 153.271H121.602V174.386H129.293Z" fill="#E1D3C1"/>
<path d="M165.187 174.386V175.983H148.455V151.674H164.668V153.271H150.222V162.856H163.144V164.419H150.222V174.386H165.187Z" fill="#E1D3C1"/>
<path d="M194.562 175.983L194.527 155.181L184.377 172.753H183.511L173.361 155.251V175.983H171.629V151.674H173.118L183.961 170.461L194.804 151.674H196.259L196.294 175.983H194.562Z" fill="#E1D3C1"/>
<path d="M212.231 167.614V175.983H210.464V167.614L200.695 151.674H202.635L211.4 165.981L220.164 151.674H222L212.231 167.614Z" fill="#E1D3C1"/>
<path d="M0 189.006H0.736139V198.469H6.55308V199.135H0V189.006Z" fill="#E1D3C1"/>
<path d="M14.451 195.532H7.9701C7.98934 196.12 8.1385 196.646 8.41755 197.109C8.69661 197.563 9.0719 197.915 9.54341 198.165C10.0245 198.416 10.5634 198.542 11.16 198.542C11.6508 198.542 12.1031 198.455 12.5168 198.281C12.9402 198.098 13.2915 197.833 13.5705 197.485L13.9891 197.963C13.6619 198.358 13.2482 198.662 12.7478 198.875C12.257 199.087 11.723 199.193 11.1456 199.193C10.395 199.193 9.72625 199.029 9.13926 198.701C8.55227 198.373 8.09038 197.919 7.75359 197.341C7.42641 196.762 7.26283 196.101 7.26283 195.358C7.26283 194.625 7.41679 193.969 7.72472 193.39C8.04227 192.802 8.47529 192.344 9.02379 192.016C9.57228 191.688 10.1881 191.524 10.8713 191.524C11.5546 191.524 12.1656 191.688 12.7045 192.016C13.253 192.334 13.6812 192.783 13.9891 193.361C14.3067 193.94 14.4654 194.596 14.4654 195.329L14.451 195.532ZM10.8713 192.16C10.3421 192.16 9.86577 192.281 9.44237 192.522C9.01897 192.754 8.67737 193.087 8.41755 193.521C8.16736 193.945 8.02302 194.427 7.98453 194.968H13.7582C13.7293 194.427 13.585 193.945 13.3251 193.521C13.0653 193.096 12.7237 192.763 12.3003 192.522C11.8769 192.281 11.4006 192.16 10.8713 192.16Z" fill="#E1D3C1"/>
<path d="M19.0271 191.524C19.9605 191.524 20.6774 191.765 21.1777 192.247C21.6781 192.72 21.9283 193.419 21.9283 194.345V199.135H21.2355V197.789C20.9949 198.233 20.6437 198.58 20.1818 198.831C19.7199 199.072 19.1666 199.193 18.5219 199.193C17.6847 199.193 17.0207 198.995 16.53 198.6C16.0488 198.204 15.8083 197.683 15.8083 197.037C15.8083 196.41 16.0296 195.903 16.4722 195.517C16.9245 195.122 17.6414 194.924 18.6229 194.924H21.2066V194.316C21.2066 193.612 21.0142 193.077 20.6292 192.71C20.254 192.344 19.7007 192.16 18.9693 192.16C18.4689 192.16 17.9878 192.247 17.5259 192.421C17.0736 192.595 16.6887 192.826 16.3712 193.115L16.0103 192.595C16.3856 192.257 16.8379 191.996 17.3671 191.813C17.8964 191.62 18.4497 191.524 19.0271 191.524ZM18.6229 198.6C19.2484 198.6 19.7776 198.455 20.2107 198.165C20.6533 197.876 20.9853 197.456 21.2066 196.907V195.489H18.6373C17.8964 195.489 17.3575 195.624 17.0207 195.894C16.6936 196.164 16.53 196.535 16.53 197.008C16.53 197.5 16.7128 197.891 17.0785 198.18C17.4441 198.46 17.9589 198.6 18.6229 198.6Z" fill="#E1D3C1"/>
<path d="M25.5947 193.231C25.8256 192.681 26.1865 192.262 26.6772 191.972C27.168 191.673 27.7646 191.524 28.4671 191.524V192.233L28.2939 192.218C27.4567 192.218 26.8023 192.484 26.3308 193.014C25.8593 193.535 25.6236 194.263 25.6236 195.199V199.135H24.9018V191.582H25.5947V193.231Z" fill="#E1D3C1"/>
<path d="M34.1363 191.524C35.0793 191.524 35.8251 191.799 36.3736 192.349C36.9221 192.898 37.1963 193.689 37.1963 194.722V199.135H36.4746V194.78C36.4746 193.931 36.2581 193.284 35.8251 192.841C35.4017 192.397 34.8051 192.175 34.0352 192.175C33.15 192.175 32.4523 192.44 31.9423 192.971C31.4323 193.501 31.1773 194.215 31.1773 195.112V199.135H30.4556V191.582H31.1484V193.217C31.4082 192.686 31.7931 192.271 32.3032 191.972C32.8228 191.673 33.4338 191.524 34.1363 191.524Z" fill="#E1D3C1"/>
<path d="M40.1676 191.582H40.8893V199.135H40.1676V191.582ZM40.5284 189.744C40.3649 189.744 40.2253 189.691 40.1098 189.585C39.9944 189.469 39.9366 189.329 39.9366 189.165C39.9366 189.001 39.9944 188.861 40.1098 188.746C40.2253 188.63 40.3649 188.572 40.5284 188.572C40.692 188.572 40.8316 188.63 40.947 188.746C41.0625 188.852 41.1202 188.987 41.1202 189.151C41.1202 189.315 41.0625 189.455 40.947 189.57C40.8316 189.686 40.692 189.744 40.5284 189.744Z" fill="#E1D3C1"/>
<path d="M47.6119 191.524C48.5549 191.524 49.3006 191.799 49.8491 192.349C50.3976 192.898 50.6719 193.689 50.6719 194.722V199.135H49.9502V194.78C49.9502 193.931 49.7337 193.284 49.3006 192.841C48.8772 192.397 48.2806 192.175 47.5108 192.175C46.6255 192.175 45.9279 192.44 45.4179 192.971C44.9079 193.501 44.6529 194.215 44.6529 195.112V199.135H43.9312V191.582H44.624V193.217C44.8838 192.686 45.2687 192.271 45.7787 191.972C46.2984 191.673 46.9094 191.524 47.6119 191.524Z" fill="#E1D3C1"/>
<path d="M60.4413 191.582V198.325C60.4413 199.579 60.1382 200.505 59.5319 201.103C58.9257 201.701 58.0115 202 56.7895 202C56.0966 202 55.4423 201.894 54.8264 201.682C54.2106 201.469 53.715 201.175 53.3397 200.799L53.7294 200.249C54.1047 200.596 54.557 200.867 55.0862 201.059C55.6155 201.252 56.1784 201.349 56.775 201.349C57.7758 201.349 58.5167 201.108 58.9979 200.625C59.479 200.153 59.7196 199.415 59.7196 198.411V197.138C59.4116 197.688 58.9834 198.112 58.4349 198.411C57.8864 198.711 57.2706 198.86 56.5874 198.86C55.8849 198.86 55.245 198.706 54.6676 198.397C54.0999 198.079 53.6524 197.64 53.3253 197.08C52.9981 196.521 52.8345 195.889 52.8345 195.185C52.8345 194.48 52.9981 193.849 53.3253 193.289C53.6524 192.73 54.0999 192.296 54.6676 191.987C55.245 191.678 55.8849 191.524 56.5874 191.524C57.2802 191.524 57.9057 191.678 58.4638 191.987C59.0219 192.296 59.4501 192.73 59.7484 193.289V191.582H60.4413ZM56.6451 198.209C57.2321 198.209 57.7613 198.083 58.2329 197.833C58.7044 197.572 59.07 197.215 59.3299 196.762C59.5993 196.299 59.734 195.773 59.734 195.185C59.734 194.596 59.5993 194.075 59.3299 193.622C59.07 193.169 58.7044 192.816 58.2329 192.566C57.7613 192.305 57.2321 192.175 56.6451 192.175C56.0581 192.175 55.5289 192.305 55.0574 192.566C54.5955 192.816 54.2298 193.169 53.9604 193.622C53.7006 194.075 53.5707 194.596 53.5707 195.185C53.5707 195.773 53.7006 196.299 53.9604 196.762C54.2298 197.215 54.5955 197.572 55.0574 197.833C55.5289 198.083 56.0581 198.209 56.6451 198.209Z" fill="#E1D3C1"/>
<path d="M76.9896 199.135L76.9752 190.467L72.746 197.789H72.3851L68.156 190.496V199.135H67.4343V189.006H68.0549L72.5728 196.834L77.0907 189.006H77.6969L77.7113 199.135H76.9896Z" fill="#E1D3C1"/>
<path d="M83.5435 191.524C84.4769 191.524 85.1938 191.765 85.6942 192.247C86.1945 192.72 86.4447 193.419 86.4447 194.345V199.135H85.7519V197.789C85.5113 198.233 85.1601 198.58 84.6982 198.831C84.2363 199.072 83.683 199.193 83.0383 199.193C82.2011 199.193 81.5371 198.995 81.0464 198.6C80.5653 198.204 80.3247 197.683 80.3247 197.037C80.3247 196.41 80.546 195.903 80.9887 195.517C81.4409 195.122 82.1578 194.924 83.1393 194.924H85.723V194.316C85.723 193.612 85.5306 193.077 85.1457 192.71C84.7704 192.344 84.2171 192.16 83.4858 192.16C82.9854 192.16 82.5042 192.247 82.0423 192.421C81.5901 192.595 81.2052 192.826 80.8876 193.115L80.5268 192.595C80.902 192.257 81.3543 191.996 81.8836 191.813C82.4128 191.62 82.9661 191.524 83.5435 191.524ZM83.1393 198.6C83.7648 198.6 84.2941 198.455 84.7271 198.165C85.1697 197.876 85.5017 197.456 85.723 196.907V195.489H83.1538C82.4128 195.489 81.8739 195.624 81.5371 195.894C81.21 196.164 81.0464 196.535 81.0464 197.008C81.0464 197.5 81.2292 197.891 81.5949 198.18C81.9605 198.46 82.4754 198.6 83.1393 198.6Z" fill="#E1D3C1"/>
<path d="M93.099 191.524C94.042 191.524 94.7878 191.799 95.3363 192.349C95.8848 192.898 96.159 193.689 96.159 194.722V199.135H95.4373V194.78C95.4373 193.931 95.2208 193.284 94.7878 192.841C94.3644 192.397 93.7677 192.175 92.9979 192.175C92.1126 192.175 91.415 192.44 90.905 192.971C90.395 193.501 90.14 194.215 90.14 195.112V199.135H89.4183V191.582H90.1111V193.217C90.3709 192.686 90.7558 192.271 91.2658 191.972C91.7855 191.673 92.3965 191.524 93.099 191.524Z" fill="#E1D3C1"/>
<path d="M101.671 191.524C102.604 191.524 103.321 191.765 103.821 192.247C104.322 192.72 104.572 193.419 104.572 194.345V199.135H103.879V197.789C103.639 198.233 103.287 198.58 102.825 198.831C102.364 199.072 101.81 199.193 101.165 199.193C100.328 199.193 99.6643 198.995 99.1736 198.6C98.6924 198.204 98.4519 197.683 98.4519 197.037C98.4519 196.41 98.6732 195.903 99.1158 195.517C99.5681 195.122 100.285 194.924 101.267 194.924H103.85V194.316C103.85 193.612 103.658 193.077 103.273 192.71C102.898 192.344 102.344 192.16 101.613 192.16C101.113 192.16 100.631 192.247 100.17 192.421C99.7173 192.595 99.3324 192.826 99.0148 193.115L98.654 192.595C99.0292 192.257 99.4815 191.996 100.011 191.813C100.54 191.62 101.093 191.524 101.671 191.524ZM101.267 198.6C101.892 198.6 102.421 198.455 102.854 198.165C103.297 197.876 103.629 197.456 103.85 196.907V195.489H101.281C100.54 195.489 100.001 195.624 99.6643 195.894C99.3372 196.164 99.1736 196.535 99.1736 197.008C99.1736 197.5 99.3564 197.891 99.7221 198.18C100.088 198.46 100.603 198.6 101.267 198.6Z" fill="#E1D3C1"/>
<path d="M114.344 191.582V198.325C114.344 199.579 114.04 200.505 113.434 201.103C112.828 201.701 111.914 202 110.692 202C109.999 202 109.345 201.894 108.729 201.682C108.113 201.469 107.617 201.175 107.242 200.799L107.632 200.249C108.007 200.596 108.459 200.867 108.989 201.059C109.518 201.252 110.081 201.349 110.677 201.349C111.678 201.349 112.419 201.108 112.9 200.625C113.381 200.153 113.622 199.415 113.622 198.411V197.138C113.314 197.688 112.886 198.112 112.337 198.411C111.789 198.711 111.173 198.86 110.49 198.86C109.787 198.86 109.147 198.706 108.57 198.397C108.002 198.079 107.555 197.64 107.228 197.08C106.9 196.521 106.737 195.889 106.737 195.185C106.737 194.48 106.9 193.849 107.228 193.289C107.555 192.73 108.002 192.296 108.57 191.987C109.147 191.678 109.787 191.524 110.49 191.524C111.183 191.524 111.808 191.678 112.366 191.987C112.924 192.296 113.352 192.73 113.651 193.289V191.582H114.344ZM110.547 198.209C111.134 198.209 111.664 198.083 112.135 197.833C112.607 197.572 112.972 197.215 113.232 196.762C113.502 196.299 113.636 195.773 113.636 195.185C113.636 194.596 113.502 194.075 113.232 193.622C112.972 193.169 112.607 192.816 112.135 192.566C111.664 192.305 111.134 192.175 110.547 192.175C109.96 192.175 109.431 192.305 108.96 192.566C108.498 192.816 108.132 193.169 107.863 193.622C107.603 194.075 107.473 194.596 107.473 195.185C107.473 195.773 107.603 196.299 107.863 196.762C108.132 197.215 108.498 197.572 108.96 197.833C109.431 198.083 109.96 198.209 110.547 198.209Z" fill="#E1D3C1"/>
<path d="M123.764 195.532H117.283C117.302 196.12 117.451 196.646 117.73 197.109C118.009 197.563 118.385 197.915 118.856 198.165C119.337 198.416 119.876 198.542 120.473 198.542C120.964 198.542 121.416 198.455 121.83 198.281C122.253 198.098 122.604 197.833 122.883 197.485L123.302 197.963C122.975 198.358 122.561 198.662 122.061 198.875C121.57 199.087 121.036 199.193 120.458 199.193C119.708 199.193 119.039 199.029 118.452 198.701C117.865 198.373 117.403 197.919 117.066 197.341C116.739 196.762 116.576 196.101 116.576 195.358C116.576 194.625 116.73 193.969 117.038 193.39C117.355 192.802 117.788 192.344 118.337 192.016C118.885 191.688 119.501 191.524 120.184 191.524C120.867 191.524 121.478 191.688 122.017 192.016C122.566 192.334 122.994 192.783 123.302 193.361C123.62 193.94 123.778 194.596 123.778 195.329L123.764 195.532ZM120.184 192.16C119.655 192.16 119.179 192.281 118.755 192.522C118.332 192.754 117.99 193.087 117.73 193.521C117.48 193.945 117.336 194.427 117.297 194.968H123.071C123.042 194.427 122.898 193.945 122.638 193.521C122.378 193.096 122.037 192.763 121.613 192.522C121.19 192.281 120.713 192.16 120.184 192.16Z" fill="#E1D3C1"/>
<path d="M135.393 191.524C136.327 191.524 137.058 191.799 137.587 192.349C138.126 192.898 138.395 193.689 138.395 194.722V199.135H137.674V194.78C137.674 193.931 137.467 193.284 137.053 192.841C136.639 192.397 136.062 192.175 135.321 192.175C134.474 192.175 133.801 192.44 133.3 192.971C132.809 193.501 132.564 194.215 132.564 195.112V199.135H131.842V194.78C131.842 193.931 131.635 193.284 131.222 192.841C130.808 192.397 130.231 192.175 129.49 192.175C128.643 192.175 127.969 192.44 127.469 192.971C126.978 193.501 126.733 194.215 126.733 195.112V199.135H126.011V191.582H126.704V193.202C126.954 192.672 127.324 192.262 127.815 191.972C128.316 191.673 128.907 191.524 129.591 191.524C130.274 191.524 130.851 191.678 131.323 191.987C131.804 192.296 132.145 192.749 132.348 193.347C132.598 192.787 132.987 192.344 133.517 192.016C134.056 191.688 134.681 191.524 135.393 191.524Z" fill="#E1D3C1"/>
<path d="M147.755 195.532H141.274C141.293 196.12 141.442 196.646 141.721 197.109C142 197.563 142.376 197.915 142.847 198.165C143.328 198.416 143.867 198.542 144.464 198.542C144.955 198.542 145.407 198.455 145.821 198.281C146.244 198.098 146.595 197.833 146.874 197.485L147.293 197.963C146.966 198.358 146.552 198.662 146.052 198.875C145.561 199.087 145.027 199.193 144.449 199.193C143.699 199.193 143.03 199.029 142.443 198.701C141.856 198.373 141.394 197.919 141.057 197.341C140.73 196.762 140.567 196.101 140.567 195.358C140.567 194.625 140.721 193.969 141.029 193.39C141.346 192.802 141.779 192.344 142.328 192.016C142.876 191.688 143.492 191.524 144.175 191.524C144.858 191.524 145.469 191.688 146.008 192.016C146.557 192.334 146.985 192.783 147.293 193.361C147.611 193.94 147.769 194.596 147.769 195.329L147.755 195.532ZM144.175 192.16C143.646 192.16 143.17 192.281 142.746 192.522C142.323 192.754 141.981 193.087 141.721 193.521C141.471 193.945 141.327 194.427 141.288 194.968H147.062C147.033 194.427 146.889 193.945 146.629 193.521C146.369 193.096 146.028 192.763 145.604 192.522C145.181 192.281 144.704 192.16 144.175 192.16Z" fill="#E1D3C1"/>
<path d="M153.683 191.524C154.626 191.524 155.371 191.799 155.92 192.349C156.468 192.898 156.743 193.689 156.743 194.722V199.135H156.021V194.78C156.021 193.931 155.804 193.284 155.371 192.841C154.948 192.397 154.351 192.175 153.582 192.175C152.696 192.175 151.999 192.44 151.489 192.971C150.979 193.501 150.724 194.215 150.724 195.112V199.135H150.002V191.582H150.695V193.217C150.955 192.686 151.34 192.271 151.85 191.972C152.369 191.673 152.98 191.524 153.683 191.524Z" fill="#E1D3C1"/>
<path d="M163.452 198.657C163.27 198.831 163.039 198.966 162.76 199.063C162.49 199.149 162.206 199.193 161.908 199.193C161.254 199.193 160.748 199.014 160.392 198.657C160.036 198.291 159.858 197.784 159.858 197.138V192.204H158.473V191.582H159.858V189.932H160.58V191.582H162.976V192.204H160.58V197.066C160.58 197.558 160.695 197.934 160.926 198.194C161.167 198.445 161.518 198.571 161.98 198.571C162.452 198.571 162.841 198.431 163.149 198.151L163.452 198.657Z" fill="#E1D3C1"/>
<path d="M172.059 199.207C171.318 199.207 170.611 199.082 169.937 198.831C169.273 198.571 168.754 198.238 168.378 197.833L168.71 197.283C169.066 197.659 169.543 197.968 170.139 198.209C170.746 198.44 171.381 198.556 172.045 198.556C173.007 198.556 173.733 198.373 174.224 198.006C174.715 197.64 174.96 197.162 174.96 196.574C174.96 196.12 174.83 195.759 174.571 195.489C174.311 195.218 173.988 195.011 173.604 194.866C173.219 194.722 172.699 194.572 172.045 194.418C171.304 194.234 170.707 194.056 170.255 193.882C169.812 193.709 169.432 193.443 169.115 193.087C168.807 192.72 168.653 192.233 168.653 191.625C168.653 191.133 168.783 190.685 169.042 190.279C169.302 189.865 169.697 189.537 170.226 189.295C170.765 189.054 171.434 188.934 172.232 188.934C172.79 188.934 173.339 189.016 173.878 189.18C174.417 189.344 174.883 189.566 175.278 189.845L175.004 190.439C174.599 190.159 174.152 189.947 173.661 189.802C173.18 189.657 172.704 189.585 172.232 189.585C171.299 189.585 170.592 189.773 170.11 190.149C169.629 190.525 169.389 191.013 169.389 191.611C169.389 192.064 169.519 192.426 169.778 192.696C170.038 192.966 170.361 193.173 170.746 193.318C171.13 193.463 171.655 193.617 172.319 193.781C173.06 193.964 173.652 194.143 174.094 194.316C174.537 194.49 174.912 194.755 175.22 195.112C175.538 195.46 175.696 195.932 175.696 196.53C175.696 197.022 175.562 197.471 175.292 197.876C175.033 198.281 174.628 198.604 174.08 198.846C173.531 199.087 172.858 199.207 172.059 199.207Z" fill="#E1D3C1"/>
<path d="M183.875 191.582L180.007 200.162C179.718 200.828 179.381 201.301 178.996 201.58C178.621 201.86 178.173 202 177.654 202C177.307 202 176.98 201.942 176.672 201.826C176.374 201.711 176.119 201.542 175.907 201.32L176.268 200.77C176.653 201.166 177.12 201.363 177.668 201.363C178.034 201.363 178.347 201.262 178.607 201.059C178.866 200.857 179.107 200.51 179.328 200.018L179.732 199.106L176.34 191.582H177.105L180.122 198.339L183.139 191.582H183.875Z" fill="#E1D3C1"/>
<path d="M187.274 199.193C186.667 199.193 186.09 199.101 185.542 198.918C184.993 198.735 184.565 198.503 184.257 198.223L184.589 197.645C184.897 197.905 185.291 198.122 185.772 198.296C186.263 198.469 186.773 198.556 187.302 198.556C188.063 198.556 188.621 198.431 188.977 198.18C189.342 197.929 189.525 197.582 189.525 197.138C189.525 196.82 189.424 196.569 189.222 196.386C189.03 196.202 188.789 196.067 188.501 195.981C188.212 195.894 187.812 195.802 187.302 195.706C186.706 195.599 186.225 195.484 185.859 195.358C185.493 195.233 185.181 195.03 184.921 194.751C184.661 194.471 184.531 194.085 184.531 193.593C184.531 192.995 184.777 192.503 185.267 192.117C185.768 191.722 186.475 191.524 187.389 191.524C187.87 191.524 188.347 191.591 188.818 191.726C189.29 191.861 189.674 192.04 189.973 192.262L189.641 192.841C189.333 192.619 188.982 192.45 188.587 192.334C188.193 192.218 187.788 192.16 187.375 192.16C186.672 192.16 186.143 192.291 185.787 192.551C185.431 192.812 185.253 193.154 185.253 193.579C185.253 193.916 185.354 194.181 185.556 194.374C185.758 194.558 186.003 194.698 186.292 194.794C186.59 194.881 187.004 194.977 187.533 195.083C188.12 195.189 188.592 195.305 188.948 195.431C189.314 195.546 189.622 195.739 189.872 196.009C190.122 196.28 190.247 196.651 190.247 197.124C190.247 197.751 189.987 198.252 189.468 198.629C188.948 199.005 188.217 199.193 187.274 199.193Z" fill="#E1D3C1"/>
<path d="M196 198.657C195.817 198.831 195.586 198.966 195.307 199.063C195.037 199.149 194.753 199.193 194.455 199.193C193.801 199.193 193.296 199.014 192.94 198.657C192.584 198.291 192.406 197.784 192.406 197.138V192.204H191.02V191.582H192.406V189.932H193.127V191.582H195.523V192.204H193.127V197.066C193.127 197.558 193.243 197.934 193.474 198.194C193.714 198.445 194.065 198.571 194.527 198.571C194.999 198.571 195.389 198.431 195.696 198.151L196 198.657Z" fill="#E1D3C1"/>
<path d="M204.11 195.532H197.629C197.648 196.12 197.797 196.646 198.076 197.109C198.355 197.563 198.731 197.915 199.202 198.165C199.683 198.416 200.222 198.542 200.819 198.542C201.31 198.542 201.762 198.455 202.176 198.281C202.599 198.098 202.95 197.833 203.229 197.485L203.648 197.963C203.321 198.358 202.907 198.662 202.407 198.875C201.916 199.087 201.382 199.193 200.804 199.193C200.054 199.193 199.385 199.029 198.798 198.701C198.211 198.373 197.749 197.919 197.412 197.341C197.085 196.762 196.922 196.101 196.922 195.358C196.922 194.625 197.076 193.969 197.384 193.39C197.701 192.802 198.134 192.344 198.683 192.016C199.231 191.688 199.847 191.524 200.53 191.524C201.213 191.524 201.824 191.688 202.363 192.016C202.912 192.334 203.34 192.783 203.648 193.361C203.966 193.94 204.124 194.596 204.124 195.329L204.11 195.532ZM200.53 192.16C200.001 192.16 199.525 192.281 199.101 192.522C198.678 192.754 198.336 193.087 198.076 193.521C197.826 193.945 197.682 194.427 197.643 194.968H203.417C203.388 194.427 203.244 193.945 202.984 193.521C202.724 193.096 202.383 192.763 201.959 192.522C201.536 192.281 201.059 192.16 200.53 192.16Z" fill="#E1D3C1"/>
<path d="M215.739 191.524C216.673 191.524 217.404 191.799 217.933 192.349C218.472 192.898 218.741 193.689 218.741 194.722V199.135H218.02V194.78C218.02 193.931 217.813 193.284 217.399 192.841C216.985 192.397 216.408 192.175 215.667 192.175C214.82 192.175 214.147 192.44 213.646 192.971C213.155 193.501 212.91 194.215 212.91 195.112V199.135H212.188V194.78C212.188 193.931 211.981 193.284 211.568 192.841C211.154 192.397 210.577 192.175 209.836 192.175C208.989 192.175 208.315 192.44 207.815 192.971C207.324 193.501 207.079 194.215 207.079 195.112V199.135H206.357V191.582H207.05V193.202C207.3 192.672 207.67 192.262 208.161 191.972C208.662 191.673 209.253 191.524 209.937 191.524C210.62 191.524 211.197 191.678 211.669 191.987C212.15 192.296 212.491 192.749 212.694 193.347C212.944 192.787 213.333 192.344 213.863 192.016C214.402 191.688 215.027 191.524 215.739 191.524Z" fill="#E1D3C1"/>
</svg>
